<svg xmlns="http://www.w3.org/2000/svg" width="109.098" height="38.751" viewBox="8.451 0.249 109.098 38.751" enable-background="new 8.451 0.249 109.098 38.751"><title>GobMx Logo 2@3x</title><desc>Created with Sketch.</desc><path fill="#fff" d="M16.7 12.395c3.112 0 4.686.99 5.552 1.91h.192c.097-1.193.322-2.012 1.925-2.012.803 0 1.765.205 2.343.443l-.225 2.252c-.673-.103-1.123-.103-1.51-.103-1.38 0-1.41.784-1.475 1.944.16.51.256 1.193.256 1.67 0 3.686-2.922 5.695-7.287 5.695-.16 0-.513 0-.738-.034-1.027.41-2.73 1.3-2.73 2.595 0 1.022 1.06 1.263 1.8 1.263h5.487c4.012 0 6.16 1.57 6.16 4.877C26.427 37.84 20.52 39 16.347 39c-2.696 0-7.895-.614-7.895-4.64 0-2.354 1.574-3.513 2.954-4.296v-.205c-1.7-.58-1.99-1.605-1.99-2.39 0-2.013 1.958-3.275 3.66-3.922l-.032-.17c-2.247-.752-3.595-2.458-3.595-4.913.03-3.75 2.823-6.07 7.252-6.07zM15.51 30.78c-.9.17-2.952 1.09-2.952 3 0 2.15 2.567 2.56 4.556 2.56 2.312 0 5.168-.717 5.2-3.273 0-1.365-.706-2.287-2.73-2.287h-4.074zm1.092-9.04c2.053 0 3.402-1.125 3.402-3.342 0-2.218-1.188-3.513-3.24-3.513-2.184 0-3.307 1.33-3.307 3.547-.002 1.672.96 3.308 3.144 3.308zM27.243 21.98c0-6.174 2.983-9.584 8.505-9.584 5.552 0 8.473 3.34 8.473 9.583 0 6.786-3.466 9.48-8.505 9.48-5.006 0-8.472-2.795-8.472-9.48zm12.805 0c0-4.708-1.765-6.378-4.3-6.378-2.568 0-4.334 1.637-4.334 6.41 0 4.267 1.668 6.276 4.334 6.276 2.695 0 4.3-1.976 4.3-6.31zM46.803 4.89h4.107v6.312l-.096 3.65.16.067c1.156-1.195 2.6-2.525 5.04-2.525 4.525 0 6.965 4.195 6.965 9.208 0 6.105-2.666 9.856-8.38 9.856-1.83 0-3.787-.238-5.873-1.33l-.673 1.023h-1.252V4.89zm4.107 13.2v9.415c1.06.546 2.28.853 3.275.853 3.37 0 4.62-2.83 4.62-6.547 0-3.582-1.41-6.172-3.722-6.172-1.67-.002-3.144 1.02-4.173 2.453z"/><path fill="#D03A21" d="M66.586 26.65c1.38 0 2.41 1.024 2.41 2.455 0 1.365-1.03 2.354-2.41 2.354-1.38 0-2.374-.99-2.374-2.355 0-1.43.995-2.455 2.374-2.455z"/><path fill="#fff" d="M115.27 26.89c-1.445-2.114-1.927-2.93-3.47-5.523.9-1.397 3.18-5.015 5.267-8.664H112.7c-1.667 3.172-3.08 5.458-3.657 6.48h-.16c-.898-1.466-1.574-2.626-2.6-4.195-1.315-1.98-2.055-2.354-3.82-2.354-.546 0-1.025.034-1.637.068v2.83c.61 0 1.314.308 2.054 1.366 1.22 1.74 1.894 2.863 3.083 4.774-.763 1.177-2 3.185-2.482 3.823-.486.642-1.622 2.113-3.16 2.113-2.074 0-2.105-1.693-2.105-2.857v-5.33c0-4.33-1.767-7.025-5.683-7.025-1.988 0-4.043.818-6.033 2.9h-.228c-.864-1.844-2.438-2.9-4.748-2.9-2.086 0-3.787.785-5.715 2.763l-.225-.034-.418-2.422h-3.435v18.453h4.108V18.398c.93-1.466 2.662-2.524 4.237-2.524 1.925 0 2.855 1.365 2.855 4.16v11.122h4.105V18.193c.964-1.466 2.602-2.32 4.174-2.32 1.96 0 2.892 1.366 2.892 4.162l-.01 5.716c0 2.916 1.76 5.406 5.566 5.406 5.365 0 6.384-2.775 7.27-4.186.74-1.176 1.76-3.048 1.76-3.048h.157c1.092 1.843 1.895 3.276 3.084 4.98 1.345 1.876 2.083 2.422 3.722 2.422.642 0 1.41-.068 1.895-.17v-2.935c-.962-.032-1.606-.476-2.277-1.33z"/><g fill="#fff"><path d="M89.662.445c.533-.112 1.375-.196 2.23-.196 1.22 0 2.007.21 2.595.686.49.365.783.926.783 1.67 0 .91-.603 1.71-1.598 2.074v.028c.896.225 1.947.968 1.947 2.37 0 .813-.323 1.43-.8 1.893-.657.604-1.725.885-3.266.885-.842 0-1.486-.056-1.895-.112V.445h.002zm1.22 3.87h1.108c1.29 0 2.048-.673 2.048-1.585 0-1.107-.843-1.542-2.078-1.542-.558 0-.88.042-1.077.084v3.043zm0 4.53c.24.042.59.055 1.022.055 1.265 0 2.428-.463 2.428-1.837 0-1.29-1.105-1.822-2.438-1.822h-1.012v3.604zM102.157 5.34H98.48v3.405h4.095V9.77h-5.312V.32h5.104V1.34H98.48V4.33h3.677v1.01zM106.18 1.356h-2.873V.32h6.998v1.036h-2.89V9.77h-1.235V1.356zM111.832 6.797l-.982 2.973h-1.262l3.208-9.45h1.476l3.227 9.45h-1.308l-1.01-2.973h-3.35zm3.098-.954l-.924-2.72c-.212-.616-.354-1.178-.492-1.725h-.03c-.138.56-.294 1.136-.476 1.71l-.926 2.735h2.848z"/></g></svg>